<?xml version="1.0" encoding="utf-8"?><svg width="112" height="129" xmlns="http://www.w3.org/2000/svg"><g fill="none" fill-rule="evenodd"><path d="M59.18 108.331c6.265-5.511 17.83-8.722 17.83-8.722l-17.83.366v-1.616h-5.053v1.25H33.998s17.656 5.659 20.656 13.439l.204-2.758h1.622l-.383 1.788c.316-.616.722-1.211 1.186-1.788h1.898v-1.959z" fill="#F6BD2A"/><path d="M33.343 73.235s-7.124 1.945-15.018-4.348c-4.522-3.605-11.897-3.889-11.897-3.889L1.85 75.065s7.375.285 11.898 3.89c7.894 6.292 15.016 4.347 15.016 4.347l4.578-10.067zM81.495 89.769s5.802 4.719 15.593 2.258c5.609-1.41 12.565 1.384 12.565 1.384V82.352s-6.955-2.793-12.565-1.384c-9.79 2.461-15.53-2.257-15.53-2.257l-.064 11.058z" fill="#37CEA8"/><path d="M110.399 80.496c-.309-.124-7.632-3.019-13.797-1.467-8.606 2.162-13.578-1.707-13.775-1.863a2 2 0 1 0-2.54 3.089c.156.128 2.415 1.922 6.38 2.86l.349 3.299a1.854 1.854 0 0 0 2.035 1.648 1.853 1.853 0 0 0 1.648-2.037l-.25-2.371a22.88 22.88 0 0 0 2.677-.042l.296 2.802a1.853 1.853 0 0 0 3.684-.389l-.311-2.951c.261-.057.514-.099.781-.166.919-.231 1.889-.327 2.859-.336l.309 2.927a1.852 1.852 0 1 0 3.683-.389l-.231-2.186c1.384.25 2.608.584 3.457.851v6.888c-2.755-.751-7.135-1.559-11.053-.575-8.587 2.155-13.613-1.689-13.851-1.877a2 2 0 0 0-2.515 3.11c.269.219 6.703 5.323 17.342 2.646 4.894-1.232 11.27 1.275 11.331 1.3a1.995 1.995 0 0 0 1.866-.199c.55-.372.88-.993.88-1.657V82.352c0-.817-.497-1.551-1.254-1.856zm-82.11 1.017c-.257.067-6.392 1.569-13.386-4.006-3.19-2.544-7.538-3.587-10.305-4.01l2.974-6.542c.878.1 2.155.299 3.555.65l-.969 2.112a1.852 1.852 0 0 0 3.369 1.544l1.12-2.446c.745.344 1.452.761 2.11 1.234l-1.107 2.414a1.853 1.853 0 0 0 3.367 1.543l.832-1.812c.585.357 1.166.683 1.735.967l-1.357 2.963a1.852 1.852 0 0 0 3.366 1.543l1.438-3.135c.873.261 1.707.452 2.486.581l-.883 1.927A1.852 1.852 0 0 0 30 78.583l1.485-3.237c1.386-.075 2.242-.296 2.345-.324a1.853 1.853 0 0 0-.975-3.574c-.063.019-6.297 1.634-13.375-4.009-4.941-3.938-12.655-4.279-12.982-4.292a1.87 1.87 0 0 0-1.756 1.085L.165 74.299a1.852 1.852 0 0 0 1.613 2.617c.067.002 6.836.314 10.816 3.487 5.278 4.206 10.274 5.036 13.396 5.036 1.926 0 3.139-.316 3.264-.35a1.847 1.847 0 0 0 1.295-2.261 1.857 1.857 0 0 0-2.26-1.315zm24.364 4.096v4a2 2 0 0 0 4 0v-4a2 2 0 0 0-4 0zm-26.998 32.816a1.852 1.852 0 0 0-3.524 1.143c.04.12.96 2.949 1.611 4.336a1.853 1.853 0 0 0 2.465.887 1.852 1.852 0 0 0 .887-2.464c-.46-.975-1.195-3.147-1.44-3.902zm-3.094-3.119a1.853 1.853 0 0 0 1.381-2.225c-2.175-9.278-1.348-16.051-1.34-16.118a1.852 1.852 0 0 0-1.596-2.074 1.86 1.86 0 0 0-2.076 1.597c-.04.3-.933 7.461 1.405 17.439a1.852 1.852 0 0 0 2.226 1.381zm73.69-5.921a2.267 2.267 0 0 0-2.264-2.265 2.268 2.268 0 0 0-2.266 2.265 2.268 2.268 0 0 0 2.266 2.266 2.268 2.268 0 0 0 2.264-2.266zm3.704 0a5.976 5.976 0 0 1-5.968 5.97 5.977 5.977 0 0 1-5.97-5.97 5.976 5.976 0 0 1 5.97-5.969 5.976 5.976 0 0 1 5.969 5.969zm-8.234-48.124c0 1.039.844 1.885 1.883 1.885a1.885 1.885 0 1 0-1.884-1.885zm-3.705 0a5.595 5.595 0 0 1 5.588-5.588 5.595 5.595 0 0 1 5.59 5.588 5.595 5.595 0 0 1-5.59 5.589 5.595 5.595 0 0 1-5.588-5.589zM14.653 46.609h3v2a2 2 0 0 0 4 0v-2h2a2 2 0 0 0 0-4h-2v-1a2 2 0 0 0-4 0v1h-3a2 2 0 0 0 0 4zm51.742 55H44.13c3.953 1.977 8.166 4.63 10.674 7.808 2.85-3.171 7.388-5.828 11.593-7.808zm13.115-5.197c1.319 15.097-6.016 30.308-6.329 30.948a1.85 1.85 0 0 1-2.475.851 1.852 1.852 0 0 1-.853-2.476c.064-.129 5.504-11.435 6.064-23.659-5.59 1.932-16.25 6.453-19.264 11.488v13.045a2 2 0 0 1-4 0v-13.16c-2.245-4.929-12.206-9.403-17.56-11.347.561 12.231 5.998 23.504 6.06 23.632a1.85 1.85 0 1 1-3.326 1.626c-.313-.64-7.647-15.851-6.33-30.948.526-6.012 3.361-10.254 5.864-13.997 1.654-2.471 3.214-4.805 4.02-7.434 1.65-5.389-.89-10.421-1.566-11.618-1.407-.984-2.445-2.304-2.807-3.751-1.123-4.486 2.142-8.732 2.281-8.911a1.852 1.852 0 0 1 2.922 2.276c-.041.055-2.286 3.03-1.61 5.737.151.608.75 1.311 1.645 1.84l.002.001c.535.316 1.177.57 1.89.703 1.532.287 4.5.193 7.178-3.617a1.852 1.852 0 1 1 3.03 2.13c-2.41 3.43-5.654 5.295-9.096 5.295-.221 0-.444-.016-.667-.031.942 2.786 1.648 6.76.34 11.031-.967 3.15-2.754 5.823-4.483 8.408-2.473 3.7-4.81 7.195-5.253 12.26-.026.292-.042.583-.06.875h40.755c-.019-.292-.035-.583-.06-.875-.443-5.065-2.78-8.56-5.255-12.26-1.727-2.585-3.515-5.258-4.48-8.408-1.31-4.271-.603-8.245.338-11.031-.222.015-.444.031-.666.031-3.443 0-6.685-1.864-9.098-5.295a1.853 1.853 0 0 1 3.032-2.13c2.677 3.809 5.645 3.903 7.178 3.617 1.904-.354 3.294-1.571 3.537-2.544.68-2.719-1.588-5.708-1.612-5.738a1.856 1.856 0 0 1 .33-2.596 1.849 1.849 0 0 1 2.593.321c.14.179 3.404 4.425 2.282 8.911-.362 1.447-1.401 2.767-2.808 3.751-.674 1.192-3.218 6.225-1.566 11.618.806 2.629 2.367 4.963 4.02 7.434 2.502 3.743 5.34 7.985 5.863 13.997zM30.984 39.396a1.85 1.85 0 0 0 2.581-.443c5.004-7.073 4.419-10.171 2.858-14.432-.477-1.308-.973-2.66-1.252-4.43-.992-6.284 3.76-8.394 4.312-8.616a1.852 1.852 0 0 0-1.346-3.451c-2.81 1.085-7.811 5.125-6.625 12.645.337 2.126.92 3.719 1.434 5.124 1.186 3.24 1.837 5.024-2.403 11.022a1.851 1.851 0 0 0 .442 2.581zM42.343 8.301c.075.186.186.359.325.516 2.368 3.651 6.986 8.406 14.975 8.406 1.294 0 2.678-.125 4.153-.399a1.853 1.853 0 0 0-.678-3.642c-7.73 1.441-12.236-2.108-14.648-5.297 2.087-1.767 7.023-5.189 12.748-3.889C66.78 5.71 69.97 9.672 69.56 16.842a1.86 1.86 0 0 0 .702 1.56c.066.053 6.636 5.329 6.051 11.764-.096 1.068-.196 2.019-.285 2.872-.557 5.328-.811 7.76 2.89 10.844a1.849 1.849 0 0 0 2.608-.236 1.851 1.851 0 0 0-.237-2.608c-2.113-1.761-2.124-2.393-1.578-7.615.091-.868.192-1.835.291-2.922.638-7.024-4.692-12.553-6.709-14.376.178-8.527-4.168-13.681-13.26-15.742-6.895-1.561-12.66 2.012-15.481 4.279a11.704 11.704 0 0 1-.44-1.096 1.852 1.852 0 0 0-3.526 1.132c.014.048.533 1.604 1.755 3.603zM52.55 37.467l-.867 5.149c.776.403 2.175.91 4.27.853 1.02-.006 1.873.78 1.9 1.802a1.85 1.85 0 0 1-1.803 1.9c-.14.004-.279.006-.416.006-4.664 0-7.002-2.119-7.26-2.367a1.85 1.85 0 0 1-.54-1.641l1.271-7.553c-2.59-2.045-4.26-5.205-4.26-8.753v-8.161a1.852 1.852 0 1 1 3.704 0v8.161c0 4.109 3.344 7.453 7.453 7.453 4.11 0 7.453-3.344 7.453-7.453v-8.161a1.852 1.852 0 1 1 3.703 0v8.161c0 6.152-5.005 11.157-11.157 11.157-1.205 0-2.364-.198-3.452-.553z" fill="#454443"/></g></svg>