<?xml version="1.0" encoding="utf-8"?><svg width="112" height="129" xmlns="http://www.w3.org/2000/svg"><g fill="none" fill-rule="evenodd"><path d="M102 48V9.278C102 7.053 100.891 5 98.666 5h-1.282C95.16 5 94 7.053 94 9.278V48h8zM94 81v39.42c0 2.225 1.16 3.58 3.384 3.58h1.282c2.225 0 3.334-1.355 3.334-3.58V81h-8z" fill="#F6BD2A"/><path d="M57.257 112.116a19.865 19.865 0 0 1-.543-.544l-31.19-32.926c-5.212-5.451-5.033-13.661.375-19.636 2.769-1.988 6.284-3.122 9.715-3.122 2.65 0 6.451.67 9.505 3.864l8.933 10.309c.834.914 2.013 1.939 3.249 1.939h.015c1.241 0 2.424-1.039 3.254-1.961l8.786-10.032c3.063-3.172 6.579-3.967 9.19-3.967 1.22 0 2.454.022 3.454.309v19.944c0 2.449 1.197 4.676 2.768 6.319l-27.192 29.06c-.144.151-.174.299-.319.444z" fill="#37CEA8"/><path d="M58.812 45.581l1.785 1.373a1.84 1.84 0 0 0 1.127.384c.555 0 1.105-.248 1.469-.723a1.85 1.85 0 0 0-.339-2.596l-1.785-1.373a1.85 1.85 0 1 0-2.257 2.935zm-47.718 5.332a1.848 1.848 0 0 0 2.409-1.028c.038-.094 3.882-9.426 13.473-12.657 7.542-2.541 16.615-.691 26.964 5.499.88.528 2.016.239 2.54-.639a1.851 1.851 0 0 0-.638-2.539c-11.323-6.772-21.433-8.733-30.049-5.831-11.19 3.77-15.547 14.338-15.727 14.786a1.854 1.854 0 0 0 1.028 2.409zM83 37a2 2 0 0 0 2-2V16a2 2 0 0 0-4 0v19a2 2 0 0 0 2 2zm0-24a2 2 0 0 0 2-2V9a2 2 0 0 0-4 0v2a2 2 0 0 0 2 2zm15 58a2 2 0 0 0-2 2v2a2 2 0 0 0 4 0v-2a2 2 0 0 0-2-2zm0-10a2 2 0 0 0-2 2v4a2 2 0 0 0 4 0v-4a2 2 0 0 0-2-2zm0-9a2 2 0 0 0-2 2v4a2 2 0 0 0 4 0v-4a2 2 0 0 0-2-2zm9.342 1.628a3.501 3.501 0 0 0-3.497-3.498H92.206c-1.55 0-2.853 1.021-3.31 2.42a2 2 0 0 1 .104.623v23.12c0 .564.153 1.075.417 1.499.32.427.735.774 1.214 1.018.302.12.633.19.986.19h.833a2 2 0 0 1 .775.156c.238-.1.5-.156.775-.156h8c.31 0 .6.076.861.202h.984a3.501 3.501 0 0 0 3.497-3.498V53.628zM100 83h-4v37.42c0 1.464.6 1.58 1.384 1.58h1.282c.781 0 1.334-.113 1.334-1.58V83zm-11.439-.733C86.428 81.166 85 78.93 85 76.293v-21.73c-5.318-1.774-12.318-1.678-17.347 3.583l-8.832 9.992c-.379.42-.919.862-1.485.862h-.013c-.571 0-1.113-.453-1.49-.882l-9.022-10.375c-5.959-6.229-16.084-5.603-22.549-1.272-6.378 7.21-6.59 17.034-.483 23.423L30.471 87h10.425l5.876-18.642a2 2 0 0 1 1.808-1.395 1.99 1.99 0 0 1 1.938 1.209L61.65 94.124l5.082-12.859A2 2 0 0 1 68.592 80H78a2 2 0 0 1 0 4h-8.048l-6.367 15.922c-.297.753-1.021 1.078-1.831 1.078h-.028c-.799 0-1.523-.289-1.838-1.025L48.967 74.609l-4.696 14.946c-.263.832-1.035 1.445-1.908 1.445h-8.125l20.755 22.041a28.05 28.05 0 0 0 2.322 2.171 21.801 21.801 0 0 0 2.133-1.962l29.113-30.983zM96 46h4V9.278C100 9.045 99.962 7 98.666 7h-1.282C96.016 7 96 9.185 96 9.278V46zm15.046 7.628v22.076c0 3.918-3.148 7.11-7.046 7.193v37.523c0 3.39-2.094 5.58-5.334 5.58h-1.282c-3.271 0-5.384-2.19-5.384-5.58V84.448l-29.648 31.553a24.715 24.715 0 0 1-3.924 3.36 1.993 1.993 0 0 1-2.256 0c-1.228-.839-2.715-2.138-4.081-3.566L28.743 91H3a2 2 0 0 1 0-4h21.977l-4.1-4.354c-7.558-7.906-7.403-19.968.34-28.77.133-.199.304-.375.51-.519 7.723-5.367 20.171-6.637 28.032 1.584l7.597 8.648 7.367-8.164c5.278-5.524 13.145-7.273 20.963-4.836A7.204 7.204 0 0 1 92 46.437V9.278C92 5.641 94.265 3 97.384 3h1.282C101.807 3 104 5.582 104 9.278v37.157c3.898.083 7.046 3.275 7.046 7.193zM33 118a2 2 0 0 1-2 2h-4v4a2 2 0 0 1-4 0v-4h-4a2 2 0 0 1 0-4h4v-4a2 2 0 0 1 4 0v4h4a2 2 0 0 1 2 2z" fill="#454443"/></g></svg>