<?xml version="1.0" encoding="utf-8"?><svg width="112" height="129" xmlns="http://www.w3.org/2000/svg"><g fill="none" fill-rule="evenodd"><path fill="#37CEA8" d="M47.038 65.844l5.204-.734 3.589-4.955 1.708-7.637-1.631-3.461-4.954 5.393-3.129 2.3-3.71 5.246z"/><path d="M18.31 44.659s8.144-5.572 11.934-.172c7.472 10.647-12.68 79.839-12.68 79.839h-.013S-2.602 55.134 4.871 44.487c3.79-5.4 12.68-.139 12.68-.139l.759.311z" fill="#F6BD2A"/><path d="M63.376 83.815c-9.209-8.442-21.532 2.511-21.532 2.511h-.42s-6.144-5.462-12.996-5.695c-2.392 12.113-5.538 24.641-7.829 33.277 2.885 4.268 6.344 7.686 9.415 8.273 5.423 1.037 9.57-1.475 11.41-5.34l.42.033c1.84 3.865 5.987 6.407 11.41 5.37 6.257-1.196 14.133-14.08 15.459-22.009.878-5.245.184-11.359-5.337-16.42z" fill="#37CEA8"/><path d="M101 101.326v4a2 2 0 0 1-4 0v-4a2 2 0 0 1 4 0zm0-57v51a2 2 0 0 1-4 0v-51a2 2 0 0 1 4 0zm-20 18a2 2 0 0 1-2 2H65a2 2 0 0 1 0-4h14a2 2 0 0 1 2 2zm0-11a2 2 0 0 1-2 2H65a2 2 0 0 1 0-4h14a2 2 0 0 1 2 2zm0-11a2 2 0 0 1-2 2H43a2 2 0 0 1 0-4h36a2 2 0 0 1 2 2zm0-11a2 2 0 0 1-2 2H43a2 2 0 0 1 0-4h36a2 2 0 0 1 2 2zM54.992 109.97l-2.576 3.313a1.85 1.85 0 0 1-2.599.325 1.85 1.85 0 0 1-.325-2.598l2.576-3.313a1.852 1.852 0 1 1 2.924 2.273zm5.396-16.493c1.575 6.301-2.529 11.903-2.704 12.139a1.853 1.853 0 0 1-2.97-2.214c.029-.04 3.224-4.453 2.081-9.027-.947-3.783-4.525-3.369-4.927-3.31a1.847 1.847 0 0 1-2.102-1.561 1.851 1.851 0 0 1 1.561-2.103c2.523-.368 7.648.422 9.061 6.076zM21 71.326a2 2 0 0 1-2 2h-7a2 2 0 0 1 0-4h7a2 2 0 0 1 2 2zm70.944-44.862a8.102 8.102 0 0 1 6.738-6.147l1.12.009h.014c.175 0 .341-.031.501-.074a8.1 8.1 0 0 1 7.371 6.212H91.944zM49.461 56.871c1.664-1.202 2.89-2.04 3.815-2.674.984-.674 1.682-1.159 2.226-1.606.326 2.139.354 4.89-.861 7.275-1.912 3.751-4.97 5.12-8.454 3.823-.398-1.116-.795-3.879 3.274-6.818zm38.565-28.555v85.383H65.257c2.747-4.4 4.795-9.345 5.429-13.134 1.229-7.343-.776-13.474-5.958-18.224-7.264-6.659-16.662-3.014-22.088.814-.538-3.486-.814-9.945 2.88-15.783 5.006 1.555 9.769-.622 12.42-5.823 3.157-6.193.194-13.647.066-13.961a1.853 1.853 0 0 0-1.654-1.155 1.877 1.877 0 0 0-1.727 1.042c-.953 1.962-.953 1.962-3.441 3.665-.944.647-2.193 1.502-3.892 2.728-5.419 3.915-5.539 8.44-4.604 11.063-4.066 6.091-4.362 12.698-3.936 17.052-2.124-1.264-4.93-2.581-8.012-3.113 3.002-15.786 4.558-30.664 1.141-35.532-1.152-1.641-2.647-2.552-4.277-2.973 4.085-7.198 6.02-15.928 6.111-16.348a1.85 1.85 0 0 0-2.151-2.214c-2.083.393-2.847-.362-3.098-.611-.379-.374-.665-.88-.882-1.46l63.652.523a11.733 11.733 0 0 0-3.21 8.061zM52.878 120.28c-4.866.929-7.956-1.595-9.229-4.266A1.998 1.998 0 0 0 42 114.88l-.42-.033a1.999 1.999 0 0 0-1.961 1.134c-1.616 3.392-5.152 5.013-9.229 4.236-2.105-.403-4.919-2.883-7.621-6.689 2.122-8.046 4.984-19.484 7.264-30.725 5.36.911 10.013 4.974 10.063 5.018.366.325.839.505 1.328.505h.42c.489 0 .962-.18 1.328-.505.11-.098 11.065-9.67 18.852-2.532 4.121 3.777 5.707 8.695 4.717 14.616-1.238 7.396-8.752 19.398-13.863 20.375zm-35.321-3.268c-2.531-9.172-5.179-19.712-7.373-29.859A1.995 1.995 0 0 0 12 88.326h5a2 2 0 0 0 0-4h-5a1.999 1.999 0 0 0-1.998 1.977C7.228 73.352 5.226 61.14 5.181 53.326H10a2 2 0 0 0 0-4H5.379c.206-1.634.571-2.895 1.129-3.69.82-1.169 2.094-1.573 3.462-1.573 2.418 0 5.129 1.262 6.147 1.783a1.998 1.998 0 0 0 2.482.331c.046-.028 2.886-1.687 5.662-2.031.025-.001.049-.006.074-.008 1.66-.191 3.288.096 4.272 1.498 1.417 2.019 1.616 6.999 1.006 13.69H18a2 2 0 0 0 0 4h11.177c-1.882 15.175-6.948 36.755-11.62 53.686zm-6.515-85.831c2.673-.723 3.198-4.205 3.371-5.349.658-4.361.885-8.585.959-11.372.802.227 1.703.277 2.639-.046 1.12-.386 2.029-1.217 2.733-2.507.282.378.604.723.97 1.017a4.668 4.668 0 0 0 1.631.852c-.209 2.743-.116 7.444 2.513 10.046.748.741 1.921 1.519 3.647 1.735-.931 3.388-2.969 9.799-6.146 14.664-2.062.31-4.078 1.066-5.699 1.901-1.454-.754-3.256-1.453-5.132-1.819-.429-1.118-1.955-5.207-2.829-9.03.43.054.881.033 1.343-.092zm88.774-14.655c-.645 0-1.274.066-1.891.166l-70.919-.366c-.06-1.632.099-3.189.236-3.974a1.855 1.855 0 0 0-2.197-2.137c-.548.116-.812-.019-1.013-.18-1.043-.833-1.559-3.553-1.593-5.215a1.852 1.852 0 0 0-3.696-.129c-.492 5.65-1.879 6.201-1.938 6.221-.452.157-1.416-.466-1.904-.976a1.853 1.853 0 0 0-3.205 1.301c.002.069.12 6.978-.946 14.043-.229 1.519-.558 2.1-.699 2.289-.337-.122-.97-.631-1.359-1.105a1.852 1.852 0 0 0-3.29 1.278c.251 4.004 2.088 9.559 3.116 12.403-2.019.288-3.9 1.22-5.285 3.193-1.017 1.451-1.591 3.796-1.819 6.782A1.982 1.982 0 0 0 1 51.326c0 .389.116.749.308 1.056-.427 21.087 12.571 66.489 14.322 72.503a2.017 2.017 0 0 0 1.934 1.441 2 2 0 0 0 1.92-1.441 509.9 509.9 0 0 0 1.878-6.642c2.192 2.607 5.134 5.301 8.276 5.902 4.778.912 9.208-.6 11.981-3.921 2.243 2.719 5.579 4.245 9.308 4.245.882 0 1.786-.085 2.702-.261 3.087-.59 6.296-3.311 9.099-6.886.163.047.332.081.51.081h26.64a1.852 1.852 0 0 0 1.852-1.852V30.168h18.024a1.852 1.852 0 0 0 1.852-1.852c0-6.501-5.289-11.79-11.79-11.79z" fill="#454443"/><path d="M36.691 108.913a4.786 4.786 0 1 1-9.572 0 4.786 4.786 0 0 1 9.572 0z" fill="#FFF"/></g></svg>