<?xml version="1.0" encoding="utf-8"?><svg height="129" width="112" xmlns="http://www.w3.org/2000/svg"><g fill="none" fill-rule="evenodd"><path d="m30.247 57.802h50.926v-29.629h-50.926z" fill="#f6bd2a"/><path d="m28.921 67.679h-2.532a8.18 8.18 0 0 0 -8.179 8.179v21.914a8.18 8.18 0 0 0 8.179 8.179h9.601c5.549 0 9.487-5.409 7.784-10.69l-7.069-21.914a8.18 8.18 0 0 0 -7.784-5.668zm52.691 0h2.532a8.18 8.18 0 0 1 8.179 8.179v21.914a8.18 8.18 0 0 1 -8.179 8.179h-9.601c-5.55 0-9.488-5.409-7.784-10.69l7.069-21.914a8.178 8.178 0 0 1 7.784-5.668z" fill="#37cea8"/><path d="m84.722 98a2 2 0 0 1 -2 2h-5a2 2 0 0 1 0-4h5a2 2 0 0 1 2 2zm1-10a2 2 0 0 1 -2 2h-5a2 2 0 0 1 0-4h5a2 2 0 0 1 2 2zm2-10a2 2 0 0 1 -2 2h-5a2 2 0 0 1 0-4h5a2 2 0 0 1 2 2zm2.749 19.771a6.335 6.335 0 0 1 -6.327 6.328h-9.602a6.262 6.262 0 0 1 -5.114-2.603 6.262 6.262 0 0 1 -.906-5.667l7.068-21.914a6.31 6.31 0 0 1 6.022-4.384h2.532a6.334 6.334 0 0 1 6.327 6.327zm-6.327-31.944h-2.532a10.004 10.004 0 0 0 -9.547 6.952l-7.069 21.913a9.93 9.93 0 0 0 1.438 8.984 9.929 9.929 0 0 0 8.108 4.127h9.602c5.531 0 10.03-4.5 10.03-10.032v-21.913c0-5.531-4.499-10.031-10.03-10.031zm-49.422 32.173a2 2 0 0 1 -2 2h-5a2 2 0 0 1 0-4h5a2 2 0 0 1 2 2zm-9-8a2 2 0 0 1 0-4h5a2 2 0 0 1 0 4zm-1-10a2 2 0 0 1 0-4h5a2 2 0 0 1 0 4zm16.382 21.496a6.263 6.263 0 0 1 -5.114 2.603h-9.601a6.336 6.336 0 0 1 -6.328-6.328v-21.913a6.335 6.335 0 0 1 6.328-6.327h2.531a6.31 6.31 0 0 1 6.022 4.384l7.069 21.914a6.263 6.263 0 0 1 -.907 5.667zm-2.637-28.717a10.004 10.004 0 0 0 -9.547-6.952h-2.531c-5.531 0-10.031 4.5-10.031 10.031v21.913c0 5.532 4.5 10.032 10.031 10.032h9.601a9.93 9.93 0 0 0 8.108-4.126 9.933 9.933 0 0 0 1.438-8.985zm-12.745-64.779a2 2 0 0 1 2-2h39a2 2 0 0 1 0 4h-39a2 2 0 0 1 -2-2zm59 11a2 2 0 0 1 2-2h5a2 2 0 0 1 0 4h-5a2 2 0 0 1 -2-2zm-74 0a2 2 0 0 1 2-2h66a2 2 0 0 1 0 4h-66a2 2 0 0 1 -2-2zm58.596 21.002 1.836-3.93a1.851 1.851 0 1 1 3.355 1.568l-1.836 3.929a1.85 1.85 0 1 1 -3.355-1.567zm-21.887-4.154a1.852 1.852 0 0 1 3.623-.766l.897 4.243a1.851 1.851 0 1 1 -3.623.766zm-8.918 2.904a1.85 1.85 0 0 1 1.01-2.416 1.85 1.85 0 0 1 2.416 1.01l1.646 4.012a1.852 1.852 0 1 1 -3.425 1.407zm69.203 69.822c0 6.382-5.192 11.574-11.574 11.574h-80.864c-6.382 0-11.575-5.192-11.575-11.574v-66.975c0-6.382 5.193-11.574 11.575-11.574h13.117v27.777c0 1.023.829 1.852 1.851 1.852h50.926a1.852 1.852 0 0 0 1.852-1.852v-27.777h13.118c6.382 0 11.574 5.192 11.574 11.574zm-28.395-78.549v25.925h-24.16l7.898-15.033a1.852 1.852 0 0 0 -3.279-1.723l-8.804 16.756h-18.878v-25.925zm16.821-3.704h-80.864c-8.424 0-15.278 6.853-15.278 15.278v66.975c0 8.425 6.854 15.278 15.278 15.278h80.864c8.424 0 15.277-6.853 15.277-15.278v-66.975c0-8.425-6.853-15.278-15.277-15.278z" fill="#454443"/></g></svg>